<?xml version="1.0" encoding="UTF-8"?>
<svg id="Camada_1" xmlns="http://www.w3.org/2000/svg" version="1.1" viewBox="0 0 407.36 400.57">
  <!-- Generator: Adobe Illustrator 30.2.1, SVG Export Plug-In . SVG Version: 2.1.1 Build 1)  -->
  <defs>
    <style>
      .st0 {
        fill: #1f1f1e;
      }
    </style>
  </defs>
  <path class="st0" d="M316,286.23c7.92,0,14.35,6.42,14.35,14.35s-6.42,14.35-14.35,14.35-14.35-6.42-14.35-14.35,6.42-14.35,14.35-14.35ZM316,290.48c-5.58,0-10.1,4.52-10.1,10.1s4.52,10.1,10.1,10.1,10.1-4.52,10.1-10.1-4.52-10.1-10.1-10.1ZM316.86,293.97c1,0,1.88.18,2.63.55s1.34.89,1.76,1.58c.42.69.63,1.51.63,2.47s-.22,1.79-.65,2.45c-.4.62-.95,1.1-1.65,1.43l2.75,5.05h-3.99l-2.38-4.46h-1.27v4.46h-3.67v-13.52h5.84ZM314.7,300.17h1.29c.43,0,.8-.05,1.1-.16.31-.11.55-.28.71-.52.17-.24.25-.55.25-.93s-.08-.7-.25-.94c-.16-.25-.4-.43-.71-.54-.3-.12-.67-.18-1.1-.18h-1.29v3.28Z"/>
  <path class="st0" d="M289.45,308.8l-45.14-158.93c-3.46-12.27-14.69-20.76-27.48-20.76h-38.98c-12.56,0-23.64,8.18-27.3,20.15l-49.16,158.7c-.95,3.1,1.38,6.22,4.63,6.22h18.78c4.21,0,7.96-2.63,9.39-6.57l11.81-31.6c1.16-3.22,3.65-5.79,6.83-7.07l71.1-28.57c6.39-2.57,13.63.84,15.69,7.4l19.13,60.17c1.3,4.15,5.16,6.98,9.52,6.98h16.53c3.2,0,5.52-3.05,4.66-6.12ZM217.72,214.4l-55.85,22.05c-3.55,1.4-7.11-1.99-5.87-5.58l23.93-69.62c1.03-3,3.86-5.01,7.04-5.01h16.97c4.24,0,8,2.69,9.36,6.69l11.97,35.23c2.23,6.55-1.09,13.69-7.55,16.24Z"/>
  <path class="st0" d="M190.73,115.85h12.87c1.2,0,2.36-.47,3.22-1.33l36.28-35.8c2.96-2.92.91-8-3.22-8h-21.4c-1.42,0-2.76.66-3.63,1.79l-27.75,35.8c-2.37,3.06-.22,7.54,3.63,7.54Z"/>
</svg>