<?xml version="1.0" encoding="UTF-8"?>
<svg id="Camada_1" xmlns="http://www.w3.org/2000/svg" version="1.1" viewBox="0 0 495.08 201.58">
  <!-- Generator: Adobe Illustrator 30.2.1, SVG Export Plug-In . SVG Version: 2.1.1 Build 1)  -->
  <defs>
    <style>
      .st0 {
        fill: #1f1f1e;
      }
    </style>
  </defs>
  <path class="st0" d="M197.29,141.89l-19.22-67.92c-1.47-5.25-6.25-8.87-11.7-8.87h-16.6c-5.35,0-10.07,3.5-11.63,8.61l-20.93,67.82c-.4,1.32.59,2.66,1.97,2.66h8c1.79,0,3.39-1.12,4-2.81l5.03-13.5c.49-1.38,1.55-2.47,2.91-3.02l30.27-12.21c2.72-1.1,5.8.36,6.68,3.16l8.14,25.71c.55,1.77,2.2,2.98,4.06,2.98h7.04c1.36,0,2.35-1.3,1.98-2.62ZM166.75,101.55l-23.78,9.42c-1.51.6-3.03-.85-2.5-2.39l10.19-29.75c.44-1.28,1.64-2.14,3-2.14h7.23c1.8,0,3.41,1.15,3.99,2.86l5.1,15.05c.95,2.8-.46,5.85-3.21,6.94Z"/>
  <path class="st0" d="M112.04,118.84h-9.42c-.91,0-1.68.68-1.79,1.58-1.6,13.46-13.87,11.95-23.73,11.95-24.84,0-23.92-20.86-23.92-20.86v-13.73s-1.36-20.86,20.14-20.86c13.45,0,25.91-1.51,27.51,11.95.11.9.88,1.58,1.79,1.58h9.42c1.05,0,1.89-.89,1.81-1.95-.46-5.94-3.73-23.43-26.28-23.43h-16.03c-5.18,0-10.32,1.13-14.94,3.48-7.62,3.87-16.14,11.99-16.14,28.94v14.3c0,16.95,8.53,25.07,16.14,28.94,4.62,2.35,9.76,3.48,14.94,3.48h16.03c22.55,0,25.82-17.49,26.28-23.43.08-1.05-.75-1.95-1.81-1.95Z"/>
  <path class="st0" d="M438.48,141.89l-19.22-67.92c-1.47-5.25-6.25-8.87-11.7-8.87h-16.6c-5.35,0-10.07,3.5-11.63,8.61l-20.93,67.82c-.4,1.32.59,2.66,1.97,2.66h7.99c1.79,0,3.39-1.12,4-2.81l5.03-13.5c.5-1.38,1.55-2.47,2.91-3.02l30.27-12.21c2.72-1.1,5.8.36,6.68,3.16l8.14,25.71c.55,1.77,2.2,2.98,4.06,2.98h7.04c1.36,0,2.35-1.3,1.98-2.62ZM407.94,101.55l-23.78,9.42c-1.51.6-3.03-.85-2.5-2.39l10.19-29.75c.44-1.28,1.64-2.14,3-2.14h7.23c1.8,0,3.41,1.15,3.99,2.86l5.1,15.05c.95,2.8-.46,5.85-3.21,6.94Z"/>
  <path class="st0" d="M353.23,118.84h-9.42c-.91,0-1.68.68-1.79,1.58-1.6,13.46-13.87,11.95-23.73,11.95-24.84,0-23.92-20.86-23.92-20.86v-13.73s-1.36-20.86,20.14-20.86c13.44,0,25.91-1.51,27.51,11.95.11.9.88,1.58,1.79,1.58h9.42c1.05,0,1.89-.89,1.81-1.95-.46-5.94-3.73-23.43-26.28-23.43h-16.03c-5.18,0-10.32,1.13-14.94,3.48-7.62,3.87-16.14,11.99-16.14,28.94v14.3c0,16.95,8.53,25.07,16.14,28.94,4.62,2.35,9.76,3.48,14.94,3.48h16.03c22.55,0,25.82-17.49,26.28-23.43.08-1.05-.75-1.95-1.81-1.95Z"/>
  <path class="st0" d="M396.85,59.45h5.53c.52,0,1.01-.2,1.38-.56l15.58-15.2c1.27-1.24.39-3.4-1.38-3.4h-9.19c-.61,0-1.18.28-1.56.76l-11.91,15.2c-1.02,1.3-.09,3.2,1.56,3.2Z"/>
  <path class="st0" d="M238.81,144.39c8.42-.34,36.1-3.68,36.1-33.04v-43.89c0-1.3-1.06-2.36-2.36-2.36h-9.46c-1.3,0-2.36,1.06-2.36,2.36v44.28c0,2.96-.32,16.29-19.03,18.89-1.5.21-3.01.28-4.52.28h-.61c-1.51,0-3.02-.07-4.52-.28-18.71-2.61-19.03-15.93-19.03-18.89v-44.28c0-1.3-1.05-2.36-2.36-2.36h-9.46c-1.3,0-2.36,1.06-2.36,2.36v43.89c0,29.36,27.67,32.7,36.1,33.04h3.86Z"/>
  <path class="st0" d="M450.11,132.29c3.39,0,6.14,2.75,6.14,6.14s-2.75,6.14-6.14,6.14-6.13-2.75-6.13-6.14,2.75-6.14,6.13-6.14ZM450.11,134.11c-2.38,0-4.32,1.93-4.32,4.32s1.93,4.32,4.32,4.32,4.32-1.93,4.32-4.32-1.93-4.32-4.32-4.32ZM450.48,135.6c.43,0,.8.08,1.13.23s.57.38.75.67c.18.29.27.65.27,1.06s-.09.76-.28,1.05c-.17.27-.41.47-.71.61l1.18,2.16h-1.71l-1.02-1.91h-.55v1.91h-1.57v-5.78h2.5ZM449.56,138.25h.55c.18,0,.34-.02.47-.07.13-.05.23-.12.3-.22.07-.1.11-.23.11-.4s-.04-.3-.11-.4c-.07-.11-.17-.18-.3-.23-.13-.05-.29-.08-.47-.08h-.55v1.4Z"/>
</svg>